<?xml version="1.0" encoding="UTF-8" standalone="no"?>
<!-- Created with Inkscape (http://www.inkscape.org/) -->

<svg
   width="888"
   height="443"
   viewBox="0 0 234.94999 117.21042"
   version="1.1"
   id="svg5"
   xml:space="preserve"
   inkscape:version="1.2.2 (1:1.2.2+202212051552+b0a8486541)"
   sodipodi:docname="banner_git.svg"
   xmlns:inkscape="http://www.inkscape.org/namespaces/inkscape"
   xmlns:sodipodi="http://sodipodi.sourceforge.net/DTD/sodipodi-0.dtd"
   xmlns:xlink="http://www.w3.org/1999/xlink"
   xmlns="http://www.w3.org/2000/svg"
   xmlns:svg="http://www.w3.org/2000/svg"><sodipodi:namedview
     id="namedview7"
     pagecolor="#ffffff"
     bordercolor="#000000"
     borderopacity="0.25"
     inkscape:showpageshadow="2"
     inkscape:pageopacity="0.0"
     inkscape:pagecheckerboard="0"
     inkscape:deskcolor="#d1d1d1"
     inkscape:document-units="px"
     showgrid="false"
     inkscape:zoom="0.5"
     inkscape:cx="401"
     inkscape:cy="225"
     inkscape:window-width="1360"
     inkscape:window-height="704"
     inkscape:window-x="0"
     inkscape:window-y="0"
     inkscape:window-maximized="1"
     inkscape:current-layer="layer1" /><defs
     id="defs2"><linearGradient
       inkscape:collect="always"
       id="linearGradient5125"><stop
         style="stop-color:#3c3cff;stop-opacity:1;"
         offset="0"
         id="stop5121" /><stop
         style="stop-color:#6c6cff;stop-opacity:0;"
         offset="1"
         id="stop5123" /></linearGradient><path
       id="B"
       d="m -16.244,50.846 0.028,-4.02 4.096,0.03 -0.028,4.02 z" /><linearGradient
       x1="194.33537"
       y1="702.98244"
       x2="71.279081"
       y2="702.98244"
       id="linearGradient-1"
       style="paint-order:normal"
       gradientTransform="scale(3.1724488,0.31521391)"
       gradientUnits="userSpaceOnUse"><stop
         stop-color="#1F202E"
         offset="0%"
         style="paint-order: normal; stop-color: rgb(31, 32, 46); text-decoration: rgb(0, 0, 0);"
         id="stop3966" /><stop
         stop-color="#865A3C"
         offset="67.6877392%"
         style="paint-order: normal; stop-color: rgb(134, 90, 60); text-decoration: rgb(0, 0, 0);"
         id="stop3968" /><stop
         stop-color="#1F202E"
         offset="100%"
         style="paint-order: normal; stop-color: rgb(31, 32, 46); text-decoration: rgb(0, 0, 0);"
         id="stop3970" /></linearGradient><linearGradient
       x1="0.87968099"
       y1="0.5"
       x2="0.012735172"
       y2="0.5"
       id="linearGradient4003"
       style="paint-order:normal"><stop
         stop-color="#1F202E"
         offset="0%"
         style="paint-order: normal; stop-color: rgb(31, 32, 46); text-decoration: rgb(0, 0, 0);"
         id="stop3997" /><stop
         stop-color="#865A3C"
         offset="67.6877392%"
         style="paint-order: normal; stop-color: rgb(134, 90, 60); text-decoration: rgb(0, 0, 0);"
         id="stop3999" /><stop
         stop-color="#1F202E"
         offset="100%"
         style="paint-order: normal; stop-color: rgb(31, 32, 46); text-decoration: rgb(0, 0, 0);"
         id="stop4001" /></linearGradient><linearGradient
       inkscape:collect="always"
       xlink:href="#linearGradient5125"
       id="linearGradient5127"
       x1="0"
       y1="58.60521"
       x2="234.95"
       y2="58.60521"
       gradientUnits="userSpaceOnUse" /></defs><g
     inkscape:label="Camada 1"
     inkscape:groupmode="layer"
     id="layer1"><rect
       style="fill:#e6e6e6;stroke-width:0.265592"
       id="rect962"
       width="234.95"
       height="117.21042"
       x="6.9630767e-07"
       y="-1.431104e-06"
       ry="5.1541686" /><path
       id="path2858"
       style="fill:#7e8ae1;stroke-width:0.265592;fill-opacity:0.97022086"
       d="M 5.1542073 0 C 2.2988008 6.2665859e-16 0 2.2988008 0 5.1542073 L 0 81.661165 C 0.090336824 81.775336 0.17835916 81.891668 0.26923421 82.00533 C 0.6543198 82.486974 1.0440455 82.964253 1.4386719 83.436767 C 1.8332982 83.909281 2.232565 84.377412 2.6365316 84.840816 C 3.0404981 85.304219 3.4491903 85.762646 3.8622965 86.216959 C 4.2754028 86.671272 4.6928878 87.120989 5.1149332 87.566231 C 5.5369786 88.011472 5.9636577 88.45244 6.3944417 88.888631 C 6.8252257 89.324821 7.2604663 89.756483 7.6997884 90.183642 C 8.1391104 90.610801 8.5822801 91.033634 9.0299397 91.451782 C 9.4775994 91.869929 9.9296159 92.283377 10.385413 92.692533 C 10.841209 93.101688 11.300923 93.506229 11.764656 93.906412 C 12.22839 94.306595 12.696203 94.702189 13.167672 95.09342 C 13.639141 95.48465 14.11442 95.871774 14.593424 96.254072 C 15.551433 97.018669 16.524128 97.765262 17.511076 98.494246 C 18.498023 99.22323 19.499195 99.934436 20.513476 100.62797 C 21.527758 101.3215 22.555447 101.99751 23.595459 102.65575 C 24.63547 103.31398 25.687718 103.9545 26.751855 104.5776 C 27.815992 105.20069 28.891873 105.80642 29.978532 106.39454 C 31.06519 106.98266 32.162745 107.55328 33.27032 108.10658 C 34.377896 108.65987 35.495683 109.1956 36.622571 109.71423 C 37.749459 110.23286 38.885518 110.73441 40.030114 111.21853 C 41.174711 111.70266 42.327601 112.16919 43.488301 112.61896 C 44.649002 113.06874 45.81728 113.50149 46.99248 113.91708 C 48.167681 114.33267 49.349904 114.73131 50.538 115.11287 C 51.726096 115.49443 52.920306 115.85917 54.119694 116.20686 C 55.319081 116.55455 56.523835 116.88507 57.73291 117.19905 C 57.748358 117.20306 57.763969 117.20641 57.779419 117.21042 L 126.69821 117.21042 C 127.53384 116.97626 128.36888 116.74082 129.19108 116.4885 C 130.257 116.16138 131.31125 115.8192 132.35316 115.46169 C 133.39508 115.10418 134.42452 114.73167 135.44083 114.34392 C 136.45714 113.95618 137.46033 113.55304 138.44943 113.13521 C 139.43853 112.71739 140.41352 112.28484 141.3738 111.8371 C 142.33408 111.38936 143.27994 110.92658 144.2098 110.44907 C 145.13966 109.97157 146.05392 109.47927 146.95175 108.97216 C 147.84959 108.46505 148.73079 107.94292 149.595 107.40636 C 150.45921 106.86981 151.30592 106.31856 152.1349 105.75272 C 152.96387 105.18688 153.77517 104.60671 154.56731 104.01174 C 154.96338 103.71425 155.35484 103.41317 155.7414 103.10843 C 156.12796 102.8037 156.5097 102.4954 156.88655 102.18343 C 157.2634 101.87146 157.6353 101.5559 158.00224 101.23671 C 158.36918 100.91753 158.73114 100.59467 159.08796 100.2683 C 159.44479 99.94192 159.79616 99.611728 160.14268 99.278177 C 160.48919 98.944626 160.8309 98.607574 161.16691 98.266869 C 161.50291 97.926165 161.83329 97.581696 162.15858 97.233858 C 162.48386 96.886019 162.80383 96.534611 163.11821 96.179658 C 163.43258 95.824705 163.74151 95.466319 164.04477 95.104272 C 164.34803 94.742224 164.64579 94.37682 164.93773 94.007698 C 165.22968 93.638576 165.51565 93.265597 165.79608 92.88942 C 166.07651 92.513243 166.35109 92.133684 166.6198 91.750471 C 166.88852 91.367259 167.15159 90.980564 167.40839 90.590335 C 167.66518 90.200107 167.91611 89.806236 168.16079 89.409012 C 168.40547 89.011788 168.64363 88.611218 168.876 88.207018 C 169.10836 87.802819 169.33466 87.394993 169.55451 86.983837 C 169.77435 86.572681 169.98765 86.158078 170.19478 85.739986 C 170.4019 85.321893 170.60312 84.900472 170.79733 84.475463 C 170.99153 84.050454 171.17899 83.622176 171.36008 83.19027 C 171.54117 82.758365 171.7158 82.322673 171.88356 81.88389 C 172.05133 81.445107 172.21198 81.002997 172.36622 80.557356 C 172.52047 80.111716 172.66805 79.66263 172.80857 79.210152 C 172.9491 78.757674 173.08298 78.302089 173.20958 77.842793 C 173.33618 77.383498 173.45574 76.920341 173.56822 76.454248 C 173.6807 75.988154 173.7858 75.518937 173.88396 75.046065 C 173.98212 74.573193 174.07318 74.096842 174.15681 73.617211 C 174.33885 72.573228 174.53172 71.547176 174.73455 70.538846 C 174.93738 69.530517 175.15023 68.539909 175.37327 67.566935 C 175.59632 66.593961 175.82925 65.638876 176.07194 64.70096 C 176.31462 63.763044 176.56725 62.842527 176.829 61.939371 C 177.09075 61.036215 177.36163 60.150346 177.64187 59.281652 C 177.92211 58.412959 178.21136 57.561299 178.50952 56.72677 C 178.80767 55.89224 179.1149 55.074868 179.43039 54.274206 C 179.74588 53.473544 180.06965 52.689505 180.40191 51.922412 C 180.73416 51.155318 181.07459 50.405208 181.42303 49.671386 C 181.77148 48.937564 182.12816 48.219911 182.49222 47.519063 C 182.85627 46.818214 183.22779 46.134131 183.60688 45.465958 C 183.98597 44.797786 184.37243 44.1458 184.76598 43.510005 C 185.15954 42.874211 185.56053 42.254402 185.96798 41.650687 C 186.37542 41.046973 186.78952 40.45942 187.21028 39.887488 C 187.63103 39.315555 188.05836 38.759303 188.49185 38.218856 C 188.92534 37.678408 189.36498 37.153535 189.81064 36.644275 C 190.25629 36.135014 190.70784 35.641083 191.16507 35.162711 C 191.62231 34.68434 192.08537 34.221429 192.55362 33.773649 C 193.02187 33.325869 193.49552 32.89354 193.97421 32.476054 C 194.45289 32.058567 194.93622 31.655866 195.42476 31.268375 C 195.91331 30.880884 196.40695 30.508407 196.90478 30.150614 C 197.40261 29.792821 197.9046 29.450129 198.41114 29.121736 C 198.91768 28.793344 199.42867 28.479482 199.94335 28.180192 C 200.45802 27.880902 200.97658 27.595949 201.49881 27.325464 C 202.02104 27.054978 202.54676 26.799014 203.07598 26.557035 C 203.60519 26.315056 204.13818 26.087126 204.67381 25.873356 C 205.20944 25.659586 205.74775 25.459768 206.28922 25.273909 C 206.83068 25.088051 207.37495 24.915906 207.92167 24.757662 C 208.46839 24.599417 209.01772 24.455025 209.56912 24.324097 C 210.12052 24.193168 210.67397 24.076091 211.22948 23.97218 C 211.78499 23.868269 212.34269 23.777553 212.90173 23.700362 C 213.46077 23.623171 214.02128 23.55941 214.58328 23.508642 C 215.14528 23.457874 215.70872 23.420114 216.2731 23.395471 C 216.83748 23.370828 217.40293 23.359147 217.96912 23.360331 C 218.53531 23.361515 219.10237 23.375476 219.66979 23.402189 C 220.23722 23.428902 220.80497 23.468584 221.37305 23.520528 C 221.94113 23.572472 222.50918 23.63692 223.07734 23.713798 C 223.6455 23.790676 224.21396 23.879968 224.78163 23.981482 C 225.34929 24.082995 225.91622 24.196694 226.48281 24.322546 C 227.04941 24.448398 227.61543 24.586066 228.18039 24.735958 C 228.74534 24.88585 229.30954 25.048082 229.87227 25.221716 C 230.435 25.395351 230.99647 25.580675 231.55641 25.777755 C 232.11634 25.974834 232.67467 26.18333 233.23124 26.403556 C 233.78781 26.623782 234.3426 26.855529 234.89522 27.098604 C 234.91356 27.106669 234.93167 27.115836 234.95 27.123926 L 234.95 5.1542073 C 234.95 2.2988008 232.6512 0 229.79579 0 L 5.1542073 0 z " /><path
       id="path5083"
       style="fill:url(#linearGradient5127);stroke-width:0.265592;fill-opacity:1"
       d="M 5.1542073 0 C 2.2988008 6.2665859e-16 0 2.2988008 0 5.1542073 L 0 81.661165 C 0.090336824 81.775336 0.17835916 81.891668 0.26923421 82.00533 C 0.6543198 82.486974 1.0440455 82.964253 1.4386719 83.436767 C 1.8332982 83.909281 2.232565 84.377412 2.6365316 84.840816 C 3.0404981 85.304219 3.4491903 85.762646 3.8622965 86.216959 C 4.2754028 86.671272 4.6928878 87.120989 5.1149332 87.566231 C 5.5369786 88.011472 5.9636577 88.45244 6.3944417 88.888631 C 6.8252257 89.324821 7.2604663 89.756483 7.6997884 90.183642 C 8.1391104 90.610801 8.5822801 91.033634 9.0299397 91.451782 C 9.4775994 91.869929 9.9296159 92.283377 10.385413 92.692533 C 10.841209 93.101688 11.300923 93.506229 11.764656 93.906412 C 12.22839 94.306595 12.696203 94.702189 13.167672 95.09342 C 13.639141 95.48465 14.11442 95.871774 14.593424 96.254072 C 15.551433 97.018669 16.524128 97.765262 17.511076 98.494246 C 18.498023 99.22323 19.499195 99.934436 20.513476 100.62797 C 21.527758 101.3215 22.555447 101.99751 23.595459 102.65575 C 24.63547 103.31398 25.687718 103.9545 26.751855 104.5776 C 27.815992 105.20069 28.891873 105.80642 29.978532 106.39454 C 31.06519 106.98266 32.162745 107.55328 33.27032 108.10658 C 34.377896 108.65987 35.495683 109.1956 36.622571 109.71423 C 37.749459 110.23286 38.885518 110.73441 40.030114 111.21853 C 41.174711 111.70266 42.327601 112.16919 43.488301 112.61896 C 44.649002 113.06874 45.81728 113.50149 46.99248 113.91708 C 48.167681 114.33267 49.349904 114.73131 50.538 115.11287 C 51.726096 115.49443 52.920306 115.85917 54.119694 116.20686 C 55.319081 116.55455 56.523835 116.88507 57.73291 117.19905 C 57.748358 117.20306 57.763969 117.20641 57.779419 117.21042 L 126.69821 117.21042 C 127.53384 116.97626 128.36888 116.74082 129.19108 116.4885 C 130.257 116.16138 131.31125 115.8192 132.35316 115.46169 C 133.39508 115.10418 134.42452 114.73167 135.44083 114.34392 C 136.45714 113.95618 137.46033 113.55304 138.44943 113.13521 C 139.43853 112.71739 140.41352 112.28484 141.3738 111.8371 C 142.33408 111.38936 143.27994 110.92658 144.2098 110.44907 C 145.13966 109.97157 146.05392 109.47927 146.95175 108.97216 C 147.84959 108.46505 148.73079 107.94292 149.595 107.40636 C 150.45921 106.86981 151.30592 106.31856 152.1349 105.75272 C 152.96387 105.18688 153.77517 104.60671 154.56731 104.01174 C 154.96338 103.71425 155.35484 103.41317 155.7414 103.10843 C 156.12796 102.8037 156.5097 102.4954 156.88655 102.18343 C 157.2634 101.87146 157.6353 101.5559 158.00224 101.23671 C 158.36918 100.91753 158.73114 100.59467 159.08796 100.2683 C 159.44479 99.94192 159.79616 99.611728 160.14268 99.278177 C 160.48919 98.944626 160.8309 98.607574 161.16691 98.266869 C 161.50291 97.926165 161.83329 97.581696 162.15858 97.233858 C 162.48386 96.886019 162.80383 96.534611 163.11821 96.179658 C 163.43258 95.824705 163.74151 95.466319 164.04477 95.104272 C 164.34803 94.742224 164.64579 94.37682 164.93773 94.007698 C 165.22968 93.638576 165.51565 93.265597 165.79608 92.88942 C 166.07651 92.513243 166.35109 92.133684 166.6198 91.750471 C 166.88852 91.367259 167.15159 90.980564 167.40839 90.590335 C 167.66518 90.200107 167.91611 89.806236 168.16079 89.409012 C 168.40547 89.011788 168.64363 88.611218 168.876 88.207018 C 169.10836 87.802819 169.33466 87.394993 169.55451 86.983837 C 169.77435 86.572681 169.98765 86.158078 170.19478 85.739986 C 170.4019 85.321893 170.60312 84.900472 170.79733 84.475463 C 170.99153 84.050454 171.17899 83.622176 171.36008 83.19027 C 171.54117 82.758365 171.7158 82.322673 171.88356 81.88389 C 172.05133 81.445107 172.21198 81.002997 172.36622 80.557356 C 172.52047 80.111716 172.66805 79.66263 172.80857 79.210152 C 172.9491 78.757674 173.08298 78.302089 173.20958 77.842793 C 173.33618 77.383498 173.45574 76.920341 173.56822 76.454248 C 173.6807 75.988154 173.7858 75.518937 173.88396 75.046065 C 173.98212 74.573193 174.07318 74.096842 174.15681 73.617211 C 174.33885 72.573228 174.53172 71.547176 174.73455 70.538846 C 174.93738 69.530517 175.15023 68.539909 175.37327 67.566935 C 175.59632 66.593961 175.82925 65.638876 176.07194 64.70096 C 176.31462 63.763044 176.56725 62.842527 176.829 61.939371 C 177.09075 61.036215 177.36163 60.150346 177.64187 59.281652 C 177.92211 58.412959 178.21136 57.561299 178.50952 56.72677 C 178.80767 55.89224 179.1149 55.074868 179.43039 54.274206 C 179.74588 53.473544 180.06965 52.689505 180.40191 51.922412 C 180.73416 51.155318 181.07459 50.405208 181.42303 49.671386 C 181.77148 48.937564 182.12816 48.219911 182.49222 47.519063 C 182.85627 46.818214 183.22779 46.134131 183.60688 45.465958 C 183.98597 44.797786 184.37243 44.1458 184.76598 43.510005 C 185.15954 42.874211 185.56053 42.254402 185.96798 41.650687 C 186.37542 41.046973 186.78952 40.45942 187.21028 39.887488 C 187.63103 39.315555 188.05836 38.759303 188.49185 38.218856 C 188.92534 37.678408 189.36498 37.153535 189.81064 36.644275 C 190.25629 36.135014 190.70784 35.641083 191.16507 35.162711 C 191.62231 34.68434 192.08537 34.221429 192.55362 33.773649 C 193.02187 33.325869 193.49552 32.89354 193.97421 32.476054 C 194.45289 32.058567 194.93622 31.655866 195.42476 31.268375 C 195.91331 30.880884 196.40695 30.508407 196.90478 30.150614 C 197.40261 29.792821 197.9046 29.450129 198.41114 29.121736 C 198.91768 28.793344 199.42867 28.479482 199.94335 28.180192 C 200.45802 27.880902 200.97658 27.595949 201.49881 27.325464 C 202.02104 27.054978 202.54676 26.799014 203.07598 26.557035 C 203.60519 26.315056 204.13818 26.087126 204.67381 25.873356 C 205.20944 25.659586 205.74775 25.459768 206.28922 25.273909 C 206.83068 25.088051 207.37495 24.915906 207.92167 24.757662 C 208.46839 24.599417 209.01772 24.455025 209.56912 24.324097 C 210.12052 24.193168 210.67397 24.076091 211.22948 23.97218 C 211.78499 23.868269 212.34269 23.777553 212.90173 23.700362 C 213.46077 23.623171 214.02128 23.55941 214.58328 23.508642 C 215.14528 23.457874 215.70872 23.420114 216.2731 23.395471 C 216.83748 23.370828 217.40293 23.359147 217.96912 23.360331 C 218.53531 23.361515 219.10237 23.375476 219.66979 23.402189 C 220.23722 23.428902 220.80497 23.468584 221.37305 23.520528 C 221.94113 23.572472 222.50918 23.63692 223.07734 23.713798 C 223.6455 23.790676 224.21396 23.879968 224.78163 23.981482 C 225.34929 24.082995 225.91622 24.196694 226.48281 24.322546 C 227.04941 24.448398 227.61543 24.586066 228.18039 24.735958 C 228.74534 24.88585 229.30954 25.048082 229.87227 25.221716 C 230.435 25.395351 230.99647 25.580675 231.55641 25.777755 C 232.11634 25.974834 232.67467 26.18333 233.23124 26.403556 C 233.78781 26.623782 234.3426 26.855529 234.89522 27.098604 C 234.91356 27.106669 234.93167 27.115836 234.95 27.123926 L 234.95 5.1542073 C 234.95 2.2988008 232.6512 0 229.79579 0 L 5.1542073 0 z "
       inkscape:label="path5083" /><g
       style="fill-rule:evenodd"
       id="g629"
       transform="matrix(0.32538658,0,0,0.32538658,75.877579,35.90971)"><path
         d="m 38.617,173.984 v -16.362 c 0,-2.15 1.344,-3.877 3.57,-3.877 h 0.616 c 2.225,0 3.563,1.73 3.563,3.877 v 34.447 c 0,8.4 -4.15,15.084 -11.382,19.342 a 21.374,21.374 0 0 1 -10.945,2.985 h -1.537 c -8.402,0 -15.077,-4.153 -19.342,-11.38 A 21.314,21.314 0 0 1 0.176,192.069 v -1.535 c 0,-8.403 4.152,-15.083 11.378,-19.35 a 21.298,21.298 0 0 1 10.948,-2.985 h 1.537 c 5.686,0 10.5,2.204 14.578,5.784 z M 7.924,191.3 c 0,6.068 2.94,10.63 8.258,13.54 2.15,1.176 4.484,1.808 6.937,1.808 5.956,0 10.374,-2.8 13.42,-7.857 1.417,-2.348 2.077,-4.917 2.077,-7.648 0,-5.26 -2.5,-9.365 -6.73,-12.414 -2.57,-1.848 -5.463,-2.775 -8.618,-2.775 -6.492,0 -11.164,3.28 -13.968,9.106 -0.946,1.97 -1.378,4.06 -1.378,6.24 z m 65.324,-23.1 h 1.074 c 8.978,0 15.806,4.355 20.133,12.192 1.73,3.135 2.656,6.557 2.656,10.142 v 1.535 c 0,8.4 -4.142,15.093 -11.385,19.343 -3.353,1.967 -7.057,2.984 -10.943,2.984 h -1.535 c -8.402,0 -15.08,-4.153 -19.342,-11.38 a 21.316,21.316 0 0 1 -2.987,-10.947 v -1.535 c 0,-8.404 4.17,-15.062 11.377,-19.347 A 21.2,21.2 0 0 1 73.248,168.2 Z m -14.58,23.1 c 0,5.9 2.9,10.223 7.865,13.27 2.336,1.43 4.9,2.078 7.638,2.078 5.82,0 10.122,-2.95 13.116,-7.863 1.428,-2.342 2.074,-4.915 2.074,-7.642 0,-5.477 -2.638,-9.66 -7.148,-12.693 a 14.41,14.41 0 0 0 -8.198,-2.496 c -6.492,0 -11.164,3.28 -13.967,9.106 -0.948,1.97 -1.38,4.06 -1.38,6.24 z m 70.656,-14.727 c -1.17,-0.548 -3.36,-0.73 -4.624,-0.778 -6.474,-0.244 -11.158,3.402 -13.906,9.113 -0.95,1.97 -1.382,4.055 -1.382,6.235 0,6.637 3.485,11.284 9.4,14.117 2.164,1.034 4.958,1.23 7.323,1.23 2.08,0 5.02,-1.274 6.866,-2.15 l 0.32,-0.152 h 1.433 l 0.158,0.032 c 1.762,0.367 3.092,1.484 3.092,3.38 v 0.767 c 0,4.718 -8.622,5.798 -11.912,6.028 -11.6,0.803 -20.293,-5.573 -23.603,-16.647 -0.575,-1.923 -0.834,-3.833 -0.834,-5.837 v -1.533 c 0,-8.403 4.17,-15.06 11.377,-19.34 a 21.12,21.12 0 0 1 10.95,-3 h 1.536 c 4.13,0 7.934,1.173 11.344,3.502 l 0.28,0.194 0.177,0.292 c 0.368,0.6 0.685,1.316 0.685,2.042 v 0.767 c 0,1.978 -1.48,3.042 -3.266,3.386 l -0.148,0.026 h -0.458 c -1.156,0 -3.785,-1.197 -4.817,-1.683 z m 25.134,5.247 9.085,-8.986 c 0.85,-0.827 4.074,-4.327 5.343,-4.327 h 1.388 l 0.158,0.033 c 1.768,0.367 3.092,1.486 3.092,3.386 v 0.766 c 0,1.296 -1.518,2.802 -2.355,3.7 -1.78,1.887 -3.654,3.712 -5.476,5.56 l -9.362,9.504 12.056,12.154 a 313.304,313.304 0 0 1 3.301,3.396 c 0.385,0.405 0.953,0.9 1.276,1.47 0.347,0.526 0.56,1.12 0.56,1.752 v 0.8 l -0.045,0.185 c -0.435,1.768 -1.557,3.194 -3.516,3.194 h -0.617 c -1.282,0 -2.73,-1.45 -3.608,-2.28 -1.8,-1.706 -3.557,-3.5 -5.33,-5.243 l -5.95,-5.84 v 9.334 c 0,2.15 -1.346,3.878 -3.57,3.878 h -0.6 c -2.226,0 -3.57,-1.728 -3.57,-3.878 v -52.596 c 0,-2.15 1.345,-3.87 3.57,-3.87 h 0.6 c 2.223,0 3.57,1.72 3.57,3.87 v 24.048 z m 96.577,-13.313 h 0.77 c 2.324,0 3.875,1.566 3.875,3.877 0,3.208 -3.067,4.03 -5.72,4.03 -3.48,0 -6.803,2.107 -9.202,4.47 -3,2.95 -4.3,6.726 -4.3,10.878 v 18.76 c 0,2.15 -1.343,3.876 -3.57,3.876 h -0.612 c -2.227,0 -3.57,-1.725 -3.57,-3.876 v -19.836 c 0,-7.617 3.708,-13.835 9.9,-18.196 3.7,-2.605 7.92,-3.98 12.438,-3.98 z m -55.074,37.176 c 2.82,0.985 6.035,0.844 8.928,0.34 1.48,-0.63 5.264,-2.28 6.656,-2.038 l 0.217,0.037 0.2,0.098 c 0.85,0.412 1.66,0.995 2.095,1.86 1.014,2.027 0.527,4.065 -1.465,5.216 l -0.663,0.383 c -7.35,4.242 -15.168,3.654 -22.495,-0.308 -3.503,-1.894 -6.183,-4.705 -8.16,-8.132 l -0.462,-0.8 c -4.72,-8.172 -4.082,-16.768 1.24,-24.54 1.837,-2.686 4.238,-4.76 7.045,-6.384 l 1.062,-0.613 c 6.922,-3.996 14.34,-3.722 21.45,-0.215 3.823,1.886 6.92,4.697 9.054,8.394 l 0.384,0.666 c 1.55,2.686 -0.458,5.026 -2.53,6.626 -2.406,1.856 -4.835,4.1 -7.14,6.08 l -15.414,13.33 z m -6.655,-4.674 23.3,-20.037 c -1.56,-1.966 -4.166,-3.383 -6.38,-4.228 -4.47,-1.703 -8.877,-1.13 -12.976,1.235 -5.365,3.098 -7.65,8.03 -7.45,14.17 0.08,2.418 0.73,4.748 2.013,6.805 0.452,0.725 0.957,1.406 1.503,2.055 z M 147.488,45.732 h 22.866 v 23.375 h 11.56 c 5.34,0 10.83,-0.95 15.887,-2.664 2.485,-0.843 5.273,-2.015 7.724,-3.5 -3.228,-4.214 -4.876,-9.535 -5.36,-14.78 -0.66,-7.135 0.78,-16.42 5.608,-22.005 l 2.404,-2.78 2.864,2.303 c 7.2,5.793 13.276,13.9 14.345,23.118 8.683,-2.554 18.878,-1.95 26.53,2.467 l 3.14,1.812 -1.652,3.226 c -6.47,12.642 -20.004,16.556 -33.234,15.863 -19.797,49.3 -62.898,72.653 -115.157,72.653 -27,0 -51.77,-10.093 -65.876,-34.047 l -0.23,-0.4 -2.055,-4.182 C 32.084,95.647 30.5,84.096 31.574,72.554 l 0.323,-3.457 H 51.45 V 45.732 H 74.315 V 22.866 h 45.733 V 0 h 27.44 v 45.732"
         fill="#364548"
         id="path575" /><path
         d="m 221.57,54.38 c 1.533,-11.916 -7.384,-21.275 -12.914,-25.72 -6.373,7.368 -7.363,26.678 2.635,34.808 -5.58,4.956 -17.337,9.448 -29.376,9.448 H 35.37 c -1.17,12.567 1.036,24.14 6.075,34.045 l 1.667,3.05 a 56.536,56.536 0 0 0 3.455,5.184 c 6.025,0.387 11.58,0.52 16.662,0.408 h 0.002 c 9.987,-0.22 18.136,-1.4 24.312,-3.54 a 1.761,1.761 0 0 1 1.153,3.326 c -0.822,0.286 -1.678,0.552 -2.562,0.805 h -0.003 c -4.863,1.4 -10.078,2.323 -16.806,2.738 0.4,0.007 -0.416,0.06 -0.418,0.06 -0.23,0.015 -0.517,0.048 -0.747,0.06 -2.648,0.15 -5.506,0.18 -8.428,0.18 -3.196,0 -6.343,-0.06 -9.862,-0.24 l -0.1,0.06 c 12.2,13.724 31.302,21.955 55.234,21.955 50.648,0 93.608,-22.452 112.632,-72.857 13.496,1.385 26.467,-2.057 32.367,-13.575 -9.398,-5.423 -21.484,-3.694 -28.443,-0.196"
         fill="#22a0c8"
         id="path577" /><path
         d="m 221.57,54.38 c 1.533,-11.916 -7.384,-21.275 -12.914,-25.72 -6.373,7.368 -7.363,26.678 2.635,34.808 -5.58,4.956 -17.337,9.448 -29.376,9.448 H 44.048 c -0.598,19.246 6.544,33.855 19.18,42.687 h 0.003 c 9.987,-0.22 18.136,-1.4 24.312,-3.54 a 1.761,1.761 0 0 1 1.153,3.326 c -0.822,0.286 -1.678,0.552 -2.562,0.805 h -0.003 c -4.863,1.4 -10.526,2.443 -17.254,2.858 -0.002,0 -0.163,-0.155 -0.165,-0.155 17.237,8.842 42.23,8.8 70.885,-2.197 32.13,-12.344 62.03,-35.86 82.9,-62.757 a 25.23,25.23 0 0 0 -0.917,0.436"
         fill="#37b1d9"
         id="path579" /><path
         d="m 35.645,88.186 c 0.9,6.732 2.88,13.035 5.8,18.776 l 1.667,3.05 a 56.432,56.432 0 0 0 3.455,5.184 c 6.026,0.387 11.58,0.52 16.664,0.408 9.987,-0.22 18.136,-1.4 24.312,-3.54 a 1.761,1.761 0 0 1 1.153,3.326 c -0.822,0.286 -1.678,0.552 -2.562,0.805 h -0.003 c -4.863,1.4 -10.496,2.383 -17.224,2.8 -0.23,0.014 -0.634,0.017 -0.867,0.03 -2.646,0.148 -5.475,0.24 -8.398,0.24 a 192.82,192.82 0 0 1 -9.98,-0.24 c 12.2,13.725 31.42,21.975 55.352,21.975 43.36,0 81.084,-16.458 102.98,-52.822 H 35.645"
         fill="#1b81a5"
         id="path581" /><path
         d="m 45.367,88.186 c 2.592,11.82 8.82,21.1 17.864,27.418 9.987,-0.22 18.136,-1.4 24.312,-3.54 a 1.761,1.761 0 0 1 1.153,3.326 c -0.822,0.286 -1.678,0.552 -2.562,0.805 h -0.003 c -4.863,1.4 -10.615,2.383 -17.344,2.8 17.236,8.84 42.157,8.713 70.8,-2.293 17.334,-6.66 34.017,-16.574 48.984,-28.515 H 45.367"
         fill="#1d91b4"
         id="path583" /><path
         d="M 55.26,49.543 H 75.078 V 69.36 H 55.26 Z m 1.65,1.652 h 1.564 V 67.7 H 56.9 V 51.195 Z m 2.94,0 h 1.627 V 67.7 H 59.85 Z m 3.002,0 h 1.627 V 67.7 h -1.627 z m 3.004,0 h 1.626 V 67.7 h -1.626 z m 3.003,0 h 1.626 V 67.7 H 68.86 V 51.195 Z m 3.002,0 h 1.565 V 67.7 H 71.86 V 51.195 Z m 6.264,-24.518 h 19.82 v 19.817 h -19.82 z m 1.652,1.652 H 81.34 V 44.843 H 79.777 V 28.33 Z m 2.94,0 h 1.626 V 44.843 H 82.72 V 28.33 Z m 3.002,0 h 1.626 V 44.843 H 85.72 V 28.33 Z m 3.003,0 h 1.626 V 44.843 H 88.722 V 28.33 Z m 3.003,0 h 1.627 V 44.843 H 91.725 V 28.33 Z m 3.002,0 h 1.566 V 44.843 H 94.727 V 28.33 Z"
         fill="#23a3c2"
         id="path585" /><path
         d="m 78.126,49.543 h 19.82 V 69.36 h -19.82 z m 1.652,1.652 h 1.563 V 67.7 h -1.563 z m 2.94,0 h 1.626 V 67.7 H 82.72 V 51.195 Z m 3.002,0 h 1.626 V 67.7 H 85.72 Z m 3.003,0 h 1.626 V 67.7 h -1.626 z m 3.003,0 h 1.627 V 67.7 h -1.627 z m 3.002,0 h 1.566 V 67.7 h -1.566 z"
         fill="#34bbde"
         id="path587" /><path
         d="m 100.993,49.543 h 19.818 V 69.36 h -19.818 z m 1.65,1.652 h 1.563 V 67.7 h -1.563 z m 2.94,0 h 1.626 V 67.7 h -1.626 z m 3.003,0 h 1.626 V 67.7 h -1.626 z m 3.003,0 h 1.626 V 67.7 H 111.6 V 51.195 Z m 3.002,0 h 1.628 V 67.7 h -1.628 z m 3.003,0 h 1.564 V 67.7 h -1.564 z"
         fill="#23a3c2"
         id="path589" /><path
         d="m 100.993,26.677 h 19.818 v 19.817 h -19.818 z m 1.65,1.652 h 1.563 v 16.514 h -1.563 V 28.33 Z m 2.94,0 h 1.626 v 16.514 h -1.626 V 28.33 Z m 3.003,0 h 1.626 v 16.514 h -1.626 V 28.33 Z m 3.003,0 h 1.626 V 44.843 H 111.6 V 28.33 Z m 3.002,0 h 1.628 v 16.514 h -1.628 V 28.33 Z m 3.003,0 h 1.564 v 16.514 h -1.564 V 28.33 Z m 6.264,21.214 h 19.818 V 69.36 H 123.86 V 49.543 Z m 1.652,1.652 h 1.563 V 67.7 H 125.5 V 51.195 Z m 2.94,0 h 1.626 V 67.7 h -1.626 z m 3.002,0 h 1.626 V 67.7 h -1.626 z m 3.003,0 h 1.627 V 67.7 h -1.627 z m 3.003,0 h 1.627 V 67.7 h -1.627 z m 3.003,0 h 1.564 V 67.7 h -1.564 z"
         fill="#34bbde"
         id="path591" /><path
         d="m 123.86,26.677 h 19.818 V 46.494 H 123.86 Z m 1.652,1.652 h 1.563 v 16.514 h -1.563 V 28.33 Z m 2.94,0 h 1.626 v 16.514 h -1.626 V 28.33 Z m 3.002,0 h 1.626 v 16.514 h -1.626 V 28.33 Z m 3.003,0 h 1.627 v 16.514 h -1.627 V 28.33 Z m 3.003,0 h 1.627 V 44.843 H 137.46 V 28.33 Z m 3.003,0 h 1.564 v 16.514 h -1.564 V 28.33 Z"
         fill="#23a3c2"
         id="path593" /><path
         d="m 123.86,3.8 h 19.818 V 23.62 H 123.86 Z m 1.652,1.65 h 1.563 v 16.516 h -1.563 V 5.46 Z m 2.94,0 h 1.626 v 16.516 h -1.626 V 5.46 Z m 3.002,0 h 1.626 v 16.516 h -1.626 V 5.46 Z m 3.003,0 h 1.627 v 16.516 h -1.627 V 5.46 Z m 3.003,0 h 1.627 V 21.966 H 137.46 V 5.46 Z m 3.003,0 h 1.564 v 16.516 h -1.564 V 5.46 Z"
         fill="#34bbde"
         id="path595" /><path
         d="m 146.725,49.543 h 19.818 V 69.36 h -19.818 z m 1.65,1.652 h 1.565 V 67.7 h -1.564 V 51.195 Z m 2.94,0 h 1.627 V 67.7 h -1.626 V 51.195 Z m 3.004,0 h 1.627 V 67.7 h -1.627 z m 3.002,0 h 1.627 V 67.7 h -1.627 z m 3.004,0 h 1.626 V 67.7 h -1.626 z m 3.002,0 h 1.564 V 67.7 h -1.564 z"
         fill="#23a3c2"
         id="path597" /><path
         d="m 96.704,101.492 a 5.468,5.468 0 1 1 -0.002,10.935 5.468,5.468 0 0 1 0.002,-10.935"
         fill="#d3ecec"
         id="path599" /><path
         d="m 96.704,103.043 a 3.9,3.9 0 0 1 1.417,0.265 1.598,1.598 0 0 0 0.798,2.98 c 0.605,0 1.13,-0.335 1.402,-0.83 a 3.915,3.915 0 1 1 -3.617,-2.414 M 0,90.162 h 254.327 c -5.537,-1.404 -17.52,-3.302 -15.544,-10.56 -10.07,11.652 -34.353,8.175 -40.482,2.43 -6.824,9.898 -46.554,6.135 -49.325,-1.576 -8.556,10.04 -35.067,10.04 -43.623,0 -2.773,7.7 -42.502,11.474 -49.327,1.575 -6.128,5.746 -30.4,9.223 -40.48,-2.428 C 17.522,86.86 5.54,88.758 0,90.163"
         fill="#364548"
         id="path601" /><path
         d="m 111.237,140.9 c -13.54,-6.425 -20.97,-15.16 -25.106,-24.694 -5.03,1.435 -11.075,2.353 -18.1,2.747 -2.646,0.148 -5.43,0.224 -8.35,0.224 -3.368,0 -6.917,-0.1 -10.643,-0.297 12.417,12.4 27.692,21.964 55.976,22.138 2.088,0 4.16,-0.04 6.223,-0.118"
         fill="#bdd9d7"
         id="path603" /><path
         d="m 91.16,124.994 c -1.873,-2.543 -3.7,-5.74 -5.026,-8.8 -5.03,1.437 -11.077,2.355 -18.103,2.75 4.826,2.62 11.727,5.046 23.13,6.05"
         fill="#d3ecec"
         id="path605" /></g><g
       transform="matrix(0.11204593,0,0,0.11204593,131.35072,28.268587)"
       id="g486"><path
         d="M 149.548,122.294 V 104.202 H 127.72 v 18.092 H 119.2 V 77.59 h 8.52 v 18.792 h 21.827 V 77.59 h 8.404 v 44.704 z"
         fill="#169bd6"
         id="path330" /><path
         d="m 200.438,113.773 h -23.344 l -3.735,8.404 h -9.104 l 19.96,-44.588 h 9.22 l 19.96,44.588 h -9.22 z m -11.672,-26.846 -8.287,19.026 h 16.574 z"
         fill="#256ea5"
         id="path332" /><path
         d="M 241.057,109.104 H 228.45 v 13.073 h -8.404 V 77.6 h 21 c 21.827,-0.117 21.827,31.515 0,31.515 z M 228.45,101.4 h 12.606 c 10.855,0 10.738,-15.874 0,-15.874 H 228.45 Z m 75.287,20.777 H 293.7 l -12.956,-14.94 H 272.7 v 14.94 h -8.404 V 77.473 h 21.127 c 10.505,0.117 16.108,7.003 16.108,14.824 0,7.821 -2.8,12.256 -11.322,14.007 l 13.54,15.174 z M 272.7,85.4 v 14.357 h 12.84 c 5.252,0 7.587,-3.618 7.587,-7.237 0,-3.619 -2.334,-7.12 -7.587,-7.12 z m 79.36,14.717 c -0.117,11.555 -7.237,23.1 -22.877,23.1 -15.64,0 -22.994,-11.322 -22.994,-22.994 0,-11.672 7.587,-23.46 22.994,-23.46 15.407,0 22.994,11.672 22.877,23.344 z m -37.468,0.233 c 0.117,7.353 4.085,15.174 14.6,15.174 10.515,0 14.473,-7.937 14.6,-15.3 0.127,-7.363 -4.085,-15.874 -14.6,-15.874 -10.515,0 -14.824,8.52 -14.6,16 z m 68.982,-22.76 h 9.22 v 0.35 l -15.174,21.7 15.524,22.294 v 0.233 h -9.338 l -11.44,-16.7 -11.44,16.7 h -9.338 v -0.233 L 367.112,99.64 352.055,77.94 v -0.35 h 9.22 l 11.1,16.574 z m 34.9,18.442 11.8,-18.442 h 10.155 v 0.35 l -17.742,25.795 v 18.442 h -8.404 V 103.735 L 397.123,77.94 v -0.35 h 10.038 z"
         fill="#24405d"
         id="path334" /><g
         fill="none"
         stroke-miterlimit="10"
         id="g412"><g
           stroke="#284a6a"
           id="g372"><path
             d="M 28.176,82.233 13.956,66.157"
             stroke-width="0.556"
             id="path336" /><path
             d="m -16.65,69.867 11.13,16.23"
             stroke-width="0.278"
             id="path338" /><g
             stroke-width="0.556"
             id="g348"><path
               d="m 28.176,82.233 14.066,-16.23 m 2.938,34.16 16.694,-14.066 M 45.18,100.164 61.874,114.849 M 42.397,133.4 28.177,117.633 m -14.222,15.765 14.22,-15.767 m -33.697,-3.4 16.076,-14.066 M -5.522,86.097 10.554,100.163 m 17.622,-17.93 -33.698,3.864 m 33.698,-3.864 33.698,3.864"
               id="path340" /><path
               d="m 45.18,100.164 -2.937,-34.16 m 2.937,34.16 -2.782,33.234"
               id="path342" /><path
               d="m 61.874,114.848 -33.698,2.782 m -33.698,-3.4 33.698,3.4"
               id="path344" /><path
               d="m 13.955,133.398 -3.4,-33.234 m 3.4,-34.007 -3.4,34.007"
               id="path346" /></g><g
             stroke-width="0.278"
             id="g370"><path
               d="m -20.98,90.425 15.458,-4.328 m 3.247,-31.533 16.23,11.593 m 3.7,-18.857 -3.7,18.858 m 3.7,-18.858 24.578,18.704"
               id="path350" /><path
               d="m 38.533,47.3 3.7,18.704 m 16.24,-11.44 -16.23,11.44 m 30.76,3.863 -30.76,-3.864 m 19.63,20.094 11.13,-16.23 m -11.13,16.23 15.767,4.328"
               id="path352" /><path
               d="m 61.874,86.097 15.458,23.496 M 38.533,47.3 13.955,66.157"
               id="path354" /><path
               d="m 61.874,86.097 -3.4,-31.533 m 3.4,60.284 15.458,-5.256"
               id="path356" /><path
               d="M 61.874,114.848 77.64,90.425 m -15.766,24.423 11.13,14.994 m -11.13,-14.994 -3.4,30.297 m -16.077,-11.747 16.076,11.748"
               id="path358" /><path
               d="m 42.397,133.398 30.606,-3.555 m -30.606,3.555 -3.7,19.013 m 3.7,-19.013 -24.732,19.002 m -3.7,-19.002 3.7,19.013"
               id="path360" /><path
               d="M 13.955,133.398 38.687,152.4 m -24.732,-19.002 -16.23,11.748 m 16.23,-11.748 -30.606,-3.4 m 11.13,-15.768 -11.13,15.767"
               id="path362" /><path
               d="m -5.522,114.23 3.246,30.915 m -3.246,-30.915 -15.612,-4.792 m 15.612,-23.34 -15.612,23.34"
               id="path364" /><path
               d="M -5.522,114.23 -20.98,90.425 M -2.275,54.565 -5.52,86.097"
               id="path366" /><path
               d="m -16.65,69.867 30.606,-3.7"
               id="path368" /></g></g><g
           stroke="#24405d"
           stroke-width="0.216"
           id="g410"><path
             d="M -2.275,54.564 -14.178,49 M -2.275,54.564 -3.202,41.58 M 17.665,47.3 -3.203,41.58"
             id="path374" /><path
             d="M 17.665,47.3 8.7,36.324 m 8.965,10.976 3.7,-13.14 M -2.275,54.564 8.7,36.324 M 38.533,47.3 21.375,34.16"
             id="path376" /><path
             d="M 38.533,47.3 34.67,33.697 M 17.665,47.3 34.668,33.697 M 38.533,47.3 47.498,36.325 m 10.975,18.24 -10.975,-18.24"
             id="path378" /><path
             d="M 58.473,54.564 59.555,41.58 M 38.533,47.3 59.555,41.58 m -1.082,12.984 12.2,-6.183 m -12.2,6.183 21.177,3.236"
             id="path380" /><path
             d="M 73.003,69.867 79.65,57.8 m -6.647,12.067 -2.32,-21.486 m 2.32,21.486 13.912,-1.082 m -13.912,1.082 19.013,10.82"
             id="path382" /><path
             d="m 77.64,90.425 9.275,-21.64 M 77.64,90.425 92.016,80.687 M 77.64,90.425 93.716,93.671 M 77.33,109.593 93.715,93.673"
             id="path384" /><path
             d="m 77.33,109.593 16.85,-3.092 M 77.64,90.425 94.18,106.5 m -16.85,3.093 14.376,9.584 m -18.703,10.665 18.704,-10.666"
             id="path386" /><path
             d="m 73.003,129.842 13.757,1.4 m -9.43,-21.64 9.43,21.64 m -13.757,-1.4 6.492,12.2 m -6.492,-12.2 -2.473,21.33"
             id="path388" /><path
             d="m 70.53,151.174 -12.057,-6.028 m 0,-10e-4 0.927,13.448 m -0.927,-13.448 21.022,-3.092 m -21.022,3.092 -10.975,18.55"
             id="path390" /><path
             d="m 38.687,152.4 8.8,11.284 m -8.8,-11.284 20.713,6.183 m -20.713,-6.183 -4.02,13.912 m 4.02,-13.912 -17.313,13.912"
             id="path392" /><path
             d="m 17.665,152.4 3.7,13.912 m -3.7,-13.912 17.003,13.912 M 17.665,152.4 l -8.8,11.284 m -11.13,-18.54 11.13,18.55"
             id="path394" /><path
             d="m 17.665,152.4 -21.022,6.492 m 1.082,-13.747 -1.082,13.757 m 1.082,-13.757 -12.057,6.647 m -2.318,-21.795 2.32,21.795"
             id="path396" /><path
             d="m -2.275,145.145 -21.177,-2.937 m 6.802,-12.2 -6.8,12.2 m 6.8,-12.2 -13.912,1.4 m 13.912,-1.4 -19.167,-10.666 m 14.683,-9.904 -14.685,9.893 m 14.685,-9.893 -16.694,-2.937"
             id="path398" /><path
             d="m -21.134,109.438 -9.43,21.95 M -20.98,90.425 -37.83,106.5"
             id="path400" /><path
             d="M -21.134,109.438 -37.828,93.67 M -20.98,90.424 -35.356,80.84"
             id="path402" /><path
             d="m -20.98,90.425 -16.85,3.246 m 16.85,-3.246 -9.584,-21.64"
             id="path404" /><path
             d="m -16.65,69.867 -13.912,-1.082 m 13.912,1.082 -18.704,10.975 M -16.65,69.867 -23.297,58.427 M -16.65,69.867 -14.178,49"
             id="path406" /><path
             d="m -2.275,54.564 -21.022,3.864"
             id="path408" /></g></g><path
         d="m 2.278,108.2 0.113,-16.23 16.26,0.114 -0.113,16.23 z m 17.592,-17.9 0.113,-16.23 16.26,0.114 -0.113,16.23 z m -0.002,35.645 0.113,-16.23 16.26,0.114 -0.113,16.23 z m 17.746,-17.9 0.113,-16.23 16.26,0.114 -0.113,16.23 z"
         fill="#256ea5"
         id="path414" /><path
         d="m 36.68,71.655 0.08,-11.284 11.33,0.08 -0.1,11.284 z M 8.35,71.653 8.43,60.369 l 11.33,0.08 -0.08,11.284 z m -19.615,20.08 0.08,-11.284 11.33,0.08 -0.08,11.284 z m -0.015,28.388 0.118,-11.283 11.33,0.12 -0.118,11.28 z m 67.58,-0.22 0.08,-11.284 11.33,0.08 -0.08,11.284 z m 0.227,-28.05 0.118,-11.283 11.33,0.12 -0.118,11.283 z"
         fill="#3378bc"
         id="path416" /><path
         d="m -20.45,73.548 0.052,-7.42 7.404,0.052 -0.052,7.42 z m 14.48,-15.098 0.052,-7.42 7.404,0.052 -0.052,7.42 z m 19.923,-7.47 0.052,-7.42 7.404,0.052 -0.052,7.42 z m -38.753,43.116 0.052,-7.42 7.358,0.05 -0.052,7.42 z m 94.06,-27.864 7.42,-0.052 0.052,7.404 -7.42,0.052 z m -14.48,-15.356 7.42,-0.052 0.052,7.404 -7.42,0.052 z m -19.992,-7.28 7.42,-0.052 0.052,7.404 L 34.84,51 Z m 38.8,43.164 7.42,-0.052 0.052,7.404 -7.42,0.052 z"
         fill="#169bd6"
         id="path418" /><path
         d="m 8.2,139.366 0.08,-11.284 11.33,0.08 -0.08,11.284 z m 28.332,0 0.08,-11.284 11.33,0.08 -0.08,11.284 z"
         fill="#3378bc"
         id="path420" /><path
         d="m 69.212,133.637 0.052,-7.42 7.404,0.052 -0.052,7.42 z M 54.9,148.9 l 0.052,-7.42 7.404,0.052 -0.052,7.42 z m -19.937,7.306 0.052,-7.42 7.404,0.052 -0.052,7.42 z m 38.607,-43.118 0.052,-7.42 7.404,0.052 -0.052,7.42 z m -94.006,13.125 7.42,-0.052 0.052,7.404 -7.42,0.052 z m 14.482,15.202 7.42,-0.052 0.052,7.404 -7.42,0.052 z m 19.836,7.28 7.42,-0.052 0.052,7.404 -7.42,0.052 z m -38.634,-43 7.42,-0.052 0.052,7.404 -7.42,0.052 z"
         fill="#169bd6"
         id="path422" /><g
         fill="#00a8da"
         id="g484"><use
           xlink:href="#B"
           x="101.024"
           y="19.927999"
           id="use424" /><use
           xlink:href="#B"
           x="106.314"
           y="32.067001"
           id="use426" /><use
           xlink:href="#B"
           x="93.863998"
           y="9.184"
           id="use428" /><use
           xlink:href="#B"
           id="use430" /><use
           xlink:href="#B"
           x="-23.506001"
           y="44.828999"
           id="use432" /><use
           xlink:href="#B"
           x="84.835999"
           y="0.001"
           id="use434" /><use
           xlink:href="#B"
           x="-21.171"
           y="32.063999"
           id="use436" /><use
           xlink:href="#B"
           x="23.034"
           y="-12.454"
           id="use438" /><use
           xlink:href="#B"
           x="-16.191"
           y="19.924"
           id="use440" /><use
           xlink:href="#B"
           x="-8.8760004"
           y="9.0290003"
           id="use442" /><path
           d="m -5.274,39.547 4.02,-0.028 0.03,4.096 -4.02,0.028 z m 24.83,-7.9 4.02,-0.028 0.03,4.096 -4.02,0.028 z"
           id="path444" /><use
           xlink:href="#B"
           x="73.938004"
           y="-7.1599998"
           id="use446" /><use
           xlink:href="#B"
           x="108.34"
           y="44.676998"
           id="use448" /><use
           xlink:href="#B"
           x="48.876999"
           y="-15.253"
           id="use450" /><use
           xlink:href="#B"
           x="61.640999"
           y="-12.608"
           id="use452" /><use
           xlink:href="#B"
           x="84.832001"
           y="102.426"
           id="use454" /><use
           xlink:href="#B"
           x="108.34"
           y="57.596001"
           id="use456" /><use
           xlink:href="#B"
           x="-0.0040000002"
           y="102.424"
           id="use458" /><use
           xlink:href="#B"
           x="106.314"
           y="70.515999"
           id="use460" /><use
           xlink:href="#B"
           x="61.638"
           y="115.034"
           id="use462" /><use
           xlink:href="#B"
           x="101.02"
           y="82.657997"
           id="use464" /><use
           xlink:href="#B"
           x="93.862"
           y="93.554001"
           id="use466" /><path
           d="m 57.527,156.738 4.02,-0.028 0.03,4.096 -4.02,0.028 z m -24.677,7.592 4.02,-0.028 0.03,4.096 -4.02,0.028 z"
           id="path468" /><use
           xlink:href="#B"
           x="11.048"
           y="110.052"
           id="use470" /><use
           xlink:href="#B"
           x="-16.346001"
           y="82.498001"
           id="use472" /><use
           xlink:href="#B"
           x="-21.173"
           y="70.514"
           id="use474" /><use
           xlink:href="#B"
           x="-9.033"
           y="93.551003"
           id="use476" /><use
           xlink:href="#B"
           x="-23.506001"
           y="57.594002"
           id="use478" /><use
           xlink:href="#B"
           x="35.953999"
           y="117.524"
           id="use480" /><use
           xlink:href="#B"
           x="22.879"
           y="114.879"
           id="use482" /></g></g><g
       transform="matrix(0.08775198,0,0,0.08775198,53.428833,31.25554)"
       id="g318"><path
         d="m 471.05,51.6 c -1.245,0 -2.455,0.257 -3.526,0.863 l -33.888,19.57 c -2.193,1.263 -3.526,3.65 -3.526,6.188 v 39.07 c 0,2.537 1.333,4.92 3.526,6.187 l 8.85,5.1 c 4.3,2.12 5.886,2.086 7.843,2.086 6.366,0 10,-3.863 10,-10.577 V 81.542 c 0,-0.545 -0.472,-0.935 -1.007,-0.935 h -4.245 c -0.544,0 -1.007,0.4 -1.007,0.935 v 38.565 c 0,2.976 -3.1,5.97 -8.13,3.454 l -9.2,-5.396 c -0.325,-0.177 -0.576,-0.5 -0.576,-0.863 v -39.07 c 0,-0.37 0.248,-0.748 0.576,-0.935 l 33.817,-19.5 c 0.317,-0.182 0.694,-0.182 1.007,0 l 33.817,19.5 c 0.322,0.193 0.576,0.553 0.576,0.935 v 39.07 c 0,0.373 -0.187,0.755 -0.504,0.935 l -33.888,19.5 c -0.3,0.173 -0.7,0.173 -1.007,0 l -8.706,-5.18 c -0.26,-0.152 -0.613,-0.14 -0.863,0 -2.403,1.362 -2.855,1.52 -5.108,2.302 -0.555,0.193 -1.4,0.494 0.288,1.44 l 11.368,6.7 c 1.082,0.626 2.288,0.935 3.526,0.935 1.255,0 2.443,-0.3 3.526,-0.935 l 33.888,-19.5 c 2.193,-1.276 3.526,-3.65 3.526,-6.187 v -39.07 c 0,-2.538 -1.333,-4.92 -3.526,-6.188 l -33.888,-19.57 c -1.062,-0.606 -2.28,-0.863 -3.526,-0.863 z m 9.066,27.918 c -9.65,0 -15.397,4.107 -15.397,10.936 0,7.4 5.704,9.444 14.966,10.36 11.08,1.085 11.944,2.712 11.944,4.893 0,3.783 -3.016,5.396 -10.145,5.396 -8.956,0 -10.925,-2.236 -11.584,-6.7 -0.078,-0.478 -0.446,-0.863 -0.935,-0.863 h -4.4 a 1.03,1.03 0 0 0 -1.007,1.007 c 0,5.703 3.102,12.447 17.916,12.447 10.723,0 16.908,-4.2 16.908,-11.584 0,-7.3 -4.996,-9.273 -15.397,-10.65 -10.5,-1.4 -11.512,-2.07 -11.512,-4.533 0,-2.032 0.85,-4.75 8.634,-4.75 6.953,0 9.523,1.5 10.577,6.188 0.092,0.44 0.48,0.8 0.935,0.8 h 4.4 c 0.27,0 0.532,-0.166 0.72,-0.36 0.184,-0.207 0.314,-0.44 0.288,-0.72 -0.68,-8.074 -6.064,-11.872 -16.908,-11.872 z"
         fill="#83cd29"
         id="path312" /><path
         d="m 271.82,0.383 a 2.18,2.18 0 0 0 -1.079,0.288 2.18,2.18 0 0 0 -1.079,1.871 v 55.042 c 0,0.54 -0.252,1.024 -0.72,1.295 a 1.5,1.5 0 0 1 -1.511,0 l -8.994,-5.18 a 4.31,4.31 0 0 0 -4.317,0 L 218.218,74.42 c -1.342,0.774 -2.16,2.264 -2.16,3.813 v 41.443 a 4.31,4.31 0 0 0 2.159,3.741 l 35.903,20.722 a 4.3,4.3 0 0 0 4.317,0 l 35.903,-20.722 a 4.31,4.31 0 0 0 2.159,-3.741 V 16.356 c 0,-1.572 -0.858,-3.047 -2.23,-3.813 L 272.9,0.598 c -0.336,-0.187 -0.708,-0.22 -1.08,-0.216 z M 40.86,52.115 c -0.685,0.028 -1.328,0.147 -1.943,0.504 L 3.015,73.34 A 4.3,4.3 0 0 0 0.857,77.081 L 0.93,132.7 c 0,0.774 0.4,1.492 1.08,1.87 0.667,0.4 1.494,0.4 2.158,0 l 21.297,-12.232 c 1.35,-0.8 2.23,-2.196 2.23,-3.74 V 92.623 c 0,-1.55 0.815,-2.97 2.16,-3.74 l 9.066,-5.252 a 4.25,4.25 0 0 1 2.158,-0.576 4.24,4.24 0 0 1 2.159,0.576 L 52.3,88.88 c 1.343,0.77 2.158,2.192 2.158,3.74 v 25.974 c 0,1.546 0.9,2.95 2.23,3.74 l 21.297,12.232 c 0.67,0.4 1.495,0.4 2.158,0 0.66,-0.38 1.08,-1.097 1.08,-1.87 L 81.295,77.079 A 4.28,4.28 0 0 0 79.137,73.338 L 43.235,52.618 c -0.607,-0.356 -1.253,-0.476 -1.943,-0.504 h -0.43 z m 322.624,0.504 a 4.29,4.29 0 0 0 -2.159,0.576 l -35.903,20.722 c -1.34,0.775 -2.16,2.192 -2.16,3.74 V 119.1 c 0,1.558 0.878,2.97 2.23,3.74 l 35.615,20.3 c 1.315,0.75 2.92,0.807 4.245,0.07 l 21.585,-12.016 c 0.685,-0.38 1.148,-1.09 1.15,-1.87 0.002,-0.78 -0.403,-1.482 -1.08,-1.87 l -36.12,-20.722 c -0.676,-0.386 -1.15,-1.167 -1.15,-1.943 V 91.83 c 0,-0.774 0.48,-1.484 1.15,-1.87 l 11.224,-6.476 c 0.668,-0.386 1.488,-0.386 2.16,0 L 375.5,89.96 a 2.15,2.15 0 0 1 1.079,1.87 v 10.217 a 2.15,2.15 0 0 0 1.079,1.87 c 0.673,0.388 1.488,0.39 2.16,0 L 401.33,91.4 c 1.335,-0.776 2.16,-2.197 2.16,-3.74 v -10 a 4.32,4.32 0 0 0 -2.159,-3.741 L 365.644,53.197 a 4.28,4.28 0 0 0 -2.159,-0.576 z m -107.35,30.94 a 1.21,1.21 0 0 1 0.576,0.143 l 12.303,7.123 c 0.334,0.193 0.576,0.55 0.576,0.935 v 14.246 c 0,0.387 -0.24,0.743 -0.576,0.935 l -12.303,7.123 c -0.335,0.19 -0.744,0.19 -1.08,0 l -12.303,-7.123 c -0.335,-0.193 -0.576,-0.55 -0.576,-0.935 V 91.758 c 0,-0.386 0.242,-0.74 0.576,-0.935 l 12.303,-7.122 c 0.168,-0.097 0.316,-0.143 0.504,-0.143 v -0.001 z"
         fill="#404137"
         id="path314" /><path
         d="m 148.714,52.402 a 4.31,4.31 0 0 0 -2.16,0.576 l -35.903,20.65 c -1.342,0.774 -2.158,2.265 -2.158,3.813 v 41.443 a 4.3,4.3 0 0 0 2.158,3.74 l 35.903,20.722 a 4.3,4.3 0 0 0 4.317,0 l 35.903,-20.722 a 4.31,4.31 0 0 0 2.159,-3.741 V 77.44 c 0,-1.55 -0.816,-3.04 -2.16,-3.813 L 150.87,52.977 a 4.27,4.27 0 0 0 -2.16,-0.576 z m 214.7,36.983 c -0.143,0 -0.302,0 -0.432,0.07 l -6.907,4.03 a 0.84,0.84 0 0 0 -0.432,0.719 v 7.915 c 0,0.298 0.173,0.57 0.432,0.72 l 6.907,3.957 a 0.75,0.75 0 0 0 0.79,0 l 6.907,-3.957 c 0.256,-0.147 0.432,-0.422 0.432,-0.72 v -7.915 c 0,-0.298 -0.175,-0.57 -0.432,-0.72 l -6.907,-4.03 c -0.128,-0.076 -0.216,-0.07 -0.36,-0.07 z"
         fill="#83cd29"
         id="path316" /></g></g></svg>
